<svg width="195" height="40" viewBox="0 0 195 40" fill="none" xmlns="http://www.w3.org/2000/svg">
<g clip-path="url(#clip0_377_9123)">
<path d="M14.1156 18.5387H12.0353L8.79631 22.8047V16.0107H6.84766V27.3076H8.79631V24.7797L9.92863 23.5683L12.2196 27.3076H14.4053L11.1926 22.3307L14.1156 18.5387Z" fill="#1C1C1E"/>
<path d="M26.2268 25.0687C25.9108 25.5163 25.3052 25.9113 24.5415 25.9113C23.5672 25.9113 23.0668 25.3057 23.0668 24.147V18.5117H21.1445V24.1207C21.1445 26.1747 22.1452 27.465 23.9358 27.465C24.9102 27.465 25.7265 27.149 26.3585 26.4907L26.4375 27.3333H28.1491V18.5117H26.2268V25.0687Z" fill="#1C1C1E"/>
<path d="M0 0V40H35.0494V0H0ZM1.92232 38.0777V1.92232H33.1007L33.1271 38.0777H1.92232Z" fill="#1C1C1E"/>
<path d="M17.8262 16.8789H16.4832L15.9829 18.8276L14.8242 18.9066V20.1442L15.8775 20.4339C15.8775 20.4075 15.8775 24.6998 15.8775 24.6998C15.8775 26.4642 16.5622 27.4385 18.2212 27.4385C18.8532 27.4385 19.3798 27.2805 19.8275 27.0435L19.6432 25.8585C19.4062 25.9375 19.1692 25.9902 18.9059 25.9902C18.2475 25.9902 17.8262 25.6215 17.8262 24.8052V20.3285H19.8275V18.8802H17.8262V16.8789Z" fill="#1C1C1E"/>
</g>
<path d="M45.3626 15H43.3938L46.9783 4.81818H49.2553L52.8448 15H50.8761L48.1566 6.90625H48.0771L45.3626 15ZM45.4272 11.0078H50.7965V12.4893H45.4272V11.0078ZM55.747 12.6037L55.742 10.4311H56.0304L58.7747 7.36364H60.8777L57.502 11.1222H57.1291L55.747 12.6037ZM54.1064 15V4.81818H55.9061V15H54.1064ZM58.899 15L56.4132 11.5249L57.6262 10.2571L61.0517 15H58.899ZM64.2745 15.1541C63.7906 15.1541 63.3548 15.0679 62.967 14.8956C62.5825 14.7199 62.2776 14.4614 62.0522 14.12C61.8301 13.7786 61.7191 13.3577 61.7191 12.8572C61.7191 12.4264 61.7987 12.0701 61.9577 11.7884C62.1168 11.5066 62.3339 11.2812 62.609 11.1122C62.8841 10.9432 63.194 10.8156 63.5387 10.7294C63.8867 10.6399 64.2463 10.5753 64.6175 10.5355C65.065 10.4891 65.4279 10.4477 65.7063 10.4112C65.9847 10.3714 66.1869 10.3118 66.3129 10.2322C66.4421 10.1494 66.5067 10.0218 66.5067 9.84943V9.8196C66.5067 9.44508 66.3957 9.15507 66.1737 8.94957C65.9516 8.74408 65.6317 8.64134 65.2141 8.64134C64.7733 8.64134 64.4237 8.73745 64.1651 8.92969C63.9099 9.12192 63.7376 9.34896 63.6481 9.6108L61.9677 9.37216C62.1003 8.90814 62.319 8.52036 62.6239 8.20881C62.9289 7.89394 63.3017 7.65862 63.7425 7.50284C64.1834 7.34375 64.6706 7.2642 65.2042 7.2642C65.5721 7.2642 65.9383 7.30729 66.3029 7.39347C66.6675 7.47964 67.0006 7.62216 67.3022 7.82102C67.6038 8.01657 67.8458 8.28338 68.0281 8.62145C68.2137 8.95952 68.3065 9.3821 68.3065 9.8892V15H66.5763V13.951H66.5167C66.4073 14.1631 66.2532 14.362 66.0543 14.5476C65.8588 14.7299 65.6119 14.8774 65.3136 14.9901C65.0186 15.0994 64.6722 15.1541 64.2745 15.1541ZM64.7418 13.8317C65.1031 13.8317 65.4163 13.7604 65.6815 13.6179C65.9466 13.4721 66.1504 13.2798 66.293 13.0412C66.4388 12.8026 66.5117 12.5424 66.5117 12.2607V11.3608C66.4554 11.4072 66.3593 11.4503 66.2234 11.4901C66.0908 11.5298 65.9416 11.5646 65.7759 11.5945C65.6102 11.6243 65.4461 11.6508 65.2837 11.674C65.1213 11.6972 64.9805 11.7171 64.8612 11.7337C64.5927 11.7701 64.3524 11.8298 64.1403 11.9126C63.9281 11.9955 63.7608 12.1115 63.6381 12.2607C63.5155 12.4065 63.4542 12.5954 63.4542 12.8274C63.4542 13.1589 63.5752 13.4091 63.8171 13.5781C64.0591 13.7472 64.3673 13.8317 64.7418 13.8317ZM72.9499 15.1342C72.35 15.1342 71.8131 14.9801 71.3391 14.6719C70.8652 14.3636 70.4906 13.9162 70.2156 13.3295C69.9405 12.7429 69.8029 12.0303 69.8029 11.1918C69.8029 10.3433 69.9421 9.62737 70.2205 9.04403C70.5022 8.45739 70.8817 8.01491 71.359 7.71662C71.8363 7.41501 72.3683 7.2642 72.9549 7.2642C73.4023 7.2642 73.7702 7.34044 74.0586 7.4929C74.3469 7.64205 74.5756 7.82268 74.7447 8.0348C74.9137 8.24361 75.0446 8.44081 75.1374 8.62642H75.212V4.81818H77.0167V15H75.2468V13.7969H75.1374C75.0446 13.9825 74.9104 14.1797 74.7347 14.3885C74.5591 14.594 74.3271 14.7696 74.0387 14.9155C73.7504 15.0613 73.3874 15.1342 72.9499 15.1342ZM73.4521 13.6577C73.8332 13.6577 74.158 13.5549 74.4265 13.3494C74.695 13.1406 74.8988 12.8506 75.038 12.4794C75.1772 12.1082 75.2468 11.6757 75.2468 11.1818C75.2468 10.688 75.1772 10.2588 75.038 9.89418C74.9021 9.52959 74.6999 9.24621 74.4315 9.04403C74.1663 8.84186 73.8398 8.74077 73.4521 8.74077C73.051 8.74077 72.7163 8.84517 72.4478 9.05398C72.1793 9.26278 71.9772 9.55114 71.8413 9.91903C71.7054 10.2869 71.6374 10.7079 71.6374 11.1818C71.6374 11.6591 71.7054 12.085 71.8413 12.4595C71.9805 12.8307 72.1843 13.1241 72.4528 13.3395C72.7246 13.5516 73.0576 13.6577 73.4521 13.6577ZM82.3152 15.1491C81.5495 15.1491 80.8883 14.9901 80.3315 14.6719C79.778 14.3504 79.3521 13.8963 79.0538 13.3097C78.7555 12.7197 78.6064 12.0253 78.6064 11.2266C78.6064 10.4411 78.7555 9.75166 79.0538 9.15838C79.3554 8.56179 79.7763 8.09777 80.3166 7.76633C80.8568 7.43158 81.4915 7.2642 82.2207 7.2642C82.6913 7.2642 83.1355 7.34044 83.5531 7.4929C83.974 7.64205 84.3452 7.87405 84.6667 8.18892C84.9915 8.50379 85.2467 8.90483 85.4324 9.39205C85.618 9.87595 85.7108 10.4527 85.7108 11.1222V11.674H79.4515V10.4609H83.9856C83.9823 10.1162 83.9077 9.80966 83.7619 9.54119C83.6161 9.26941 83.4122 9.05563 83.1504 8.89986C82.8919 8.74408 82.5903 8.66619 82.2456 8.66619C81.8777 8.66619 81.5545 8.75568 81.2761 8.93466C80.9977 9.11032 80.7806 9.34233 80.6248 9.63068C80.4724 9.91572 80.3945 10.2289 80.3912 10.5703V11.6293C80.3912 12.0734 80.4724 12.4545 80.6348 12.7727C80.7972 13.0876 81.0242 13.3295 81.3159 13.4986C81.6075 13.6643 81.9489 13.7472 82.34 13.7472C82.6019 13.7472 82.8388 13.7107 83.051 13.6378C83.2631 13.5616 83.447 13.4505 83.6028 13.3047C83.7586 13.1589 83.8762 12.9782 83.9558 12.7628L85.6362 12.9517C85.5301 13.3958 85.3279 13.7836 85.0297 14.1151C84.7347 14.4432 84.3568 14.6984 83.8961 14.8807C83.4354 15.0597 82.9084 15.1491 82.3152 15.1491ZM87.2333 15V7.36364H88.9535V8.66122H89.043C89.2021 8.22372 89.4656 7.88234 89.8335 7.63707C90.2013 7.38849 90.6405 7.2642 91.1509 7.2642C91.668 7.2642 92.1038 7.39015 92.4585 7.64205C92.8164 7.89062 93.0683 8.23035 93.2141 8.66122H93.2937C93.4627 8.23698 93.7478 7.89891 94.1488 7.64702C94.5531 7.39181 95.0321 7.2642 95.5856 7.2642C96.2882 7.2642 96.8616 7.48627 97.3058 7.9304C97.7499 8.37453 97.9719 9.02249 97.9719 9.87429V15H96.1673V10.1527C96.1673 9.67874 96.0413 9.33239 95.7894 9.11364C95.5375 8.89157 95.2293 8.78054 94.8647 8.78054C94.4305 8.78054 94.0908 8.91643 93.8455 9.18821C93.6036 9.45668 93.4826 9.80634 93.4826 10.2372V15H91.7177V10.0781C91.7177 9.68371 91.5984 9.36884 91.3597 9.13352C91.1244 8.8982 90.8162 8.78054 90.435 8.78054C90.1765 8.78054 89.9412 8.84683 89.729 8.9794C89.5169 9.10866 89.3479 9.29261 89.2219 9.53125C89.096 9.76657 89.033 10.0417 89.033 10.3565V15H87.2333ZM99.7978 15V7.36364H101.597V15H99.7978ZM100.703 6.27983C100.414 6.27983 100.167 6.18537 99.9618 5.99645C99.7596 5.80421 99.6586 5.57386 99.6586 5.3054C99.6586 5.03362 99.7613 4.80327 99.9668 4.61435C100.172 4.42211 100.418 4.32599 100.703 4.32599C100.988 4.32599 101.231 4.42211 101.433 4.61435C101.639 4.80327 101.742 5.03362 101.742 5.3054C101.742 5.57386 101.639 5.80421 101.433 5.99645C101.231 6.18537 100.988 6.27983 100.703 6.27983ZM105.248 10.5256V15H103.448V7.36364H105.168V8.66122H105.258C105.433 8.23366 105.714 7.89394 106.098 7.64205C106.486 7.39015 106.965 7.2642 107.535 7.2642C108.062 7.2642 108.521 7.37689 108.912 7.60227C109.306 7.82765 109.611 8.15412 109.827 8.58168C110.045 9.00923 110.153 9.52794 110.15 10.1378V15H108.35V10.4162C108.35 9.90578 108.218 9.50639 107.952 9.21804C107.691 8.92969 107.328 8.78551 106.864 8.78551C106.549 8.78551 106.269 8.85511 106.023 8.99432C105.781 9.13021 105.591 9.32741 105.452 9.58594C105.316 9.84446 105.248 10.1577 105.248 10.5256ZM115.36 15.1491C114.594 15.1491 113.933 14.9901 113.376 14.6719C112.823 14.3504 112.397 13.8963 112.099 13.3097C111.8 12.7197 111.651 12.0253 111.651 11.2266C111.651 10.4411 111.8 9.75166 112.099 9.15838C112.4 8.56179 112.821 8.09777 113.362 7.76633C113.902 7.43158 114.536 7.2642 115.266 7.2642C115.736 7.2642 116.18 7.34044 116.598 7.4929C117.019 7.64205 117.39 7.87405 117.712 8.18892C118.036 8.50379 118.292 8.90483 118.477 9.39205C118.663 9.87595 118.756 10.4527 118.756 11.1222V11.674H112.496V10.4609H117.031C117.027 10.1162 116.953 9.80966 116.807 9.54119C116.661 9.26941 116.457 9.05563 116.195 8.89986C115.937 8.74408 115.635 8.66619 115.29 8.66619C114.923 8.66619 114.599 8.75568 114.321 8.93466C114.043 9.11032 113.826 9.34233 113.67 9.63068C113.517 9.91572 113.439 10.2289 113.436 10.5703V11.6293C113.436 12.0734 113.517 12.4545 113.68 12.7727C113.842 13.0876 114.069 13.3295 114.361 13.4986C114.652 13.6643 114.994 13.7472 115.385 13.7472C115.647 13.7472 115.884 13.7107 116.096 13.6378C116.308 13.5616 116.492 13.4505 116.648 13.3047C116.804 13.1589 116.921 12.9782 117.001 12.7628L118.681 12.9517C118.575 13.3958 118.373 13.7836 118.075 14.1151C117.78 14.4432 117.402 14.6984 116.941 14.8807C116.48 15.0597 115.953 15.1491 115.36 15.1491ZM115.216 6.27983C114.928 6.27983 114.681 6.18537 114.475 5.99645C114.273 5.80421 114.172 5.57386 114.172 5.3054C114.172 5.03362 114.275 4.80327 114.48 4.61435C114.686 4.42211 114.931 4.32599 115.216 4.32599C115.501 4.32599 115.745 4.42211 115.947 4.61435C116.152 4.80327 116.255 5.03362 116.255 5.3054C116.255 5.57386 116.152 5.80421 115.947 5.99645C115.745 6.18537 115.501 6.27983 115.216 6.27983ZM43.9755 35V27.3636H45.7752V35H43.9755ZM44.8803 26.2798C44.592 26.2798 44.3451 26.1854 44.1396 25.9964C43.9374 25.8042 43.8363 25.5739 43.8363 25.3054C43.8363 25.0336 43.939 24.8033 44.1445 24.6143C44.35 24.4221 44.5953 24.326 44.8803 24.326C45.1654 24.326 45.409 24.4221 45.6112 24.6143C45.8166 24.8033 45.9194 25.0336 45.9194 25.3054C45.9194 25.5739 45.8166 25.8042 45.6112 25.9964C45.409 26.1854 45.1654 26.2798 44.8803 26.2798ZM49.4256 30.5256V35H47.6259V27.3636H49.3461V28.6612H49.4355C49.6112 28.2337 49.8913 27.8939 50.2757 27.642C50.6635 27.3902 51.1425 27.2642 51.7125 27.2642C52.2395 27.2642 52.6986 27.3769 53.0897 27.6023C53.4841 27.8277 53.789 28.1541 54.0044 28.5817C54.2232 29.0092 54.3309 29.5279 54.3276 30.1378V35H52.5279V30.4162C52.5279 29.9058 52.3953 29.5064 52.1301 29.218C51.8683 28.9297 51.5054 28.7855 51.0414 28.7855C50.7265 28.7855 50.4464 28.8551 50.2012 28.9943C49.9592 29.1302 49.7686 29.3274 49.6294 29.5859C49.4935 29.8445 49.4256 30.1577 49.4256 30.5256ZM60.025 27.3636V28.7557H55.5108V27.3636H60.025ZM56.6394 35V26.6428C56.6394 26.129 56.7454 25.7015 56.9576 25.3601C57.173 25.0187 57.4614 24.7635 57.8226 24.5945C58.1839 24.4254 58.5849 24.3409 59.0257 24.3409C59.3373 24.3409 59.6141 24.3658 59.856 24.4155C60.098 24.4652 60.2769 24.5099 60.3929 24.5497L60.035 25.9418C59.9587 25.9186 59.8626 25.8954 59.7466 25.8722C59.6306 25.8456 59.5014 25.8324 59.3588 25.8324C59.0241 25.8324 58.7871 25.9136 58.6479 26.076C58.512 26.2351 58.4441 26.4638 58.4441 26.7621V35H56.6394ZM64.4783 35.1491C63.7326 35.1491 63.0863 34.9851 62.5394 34.657C61.9925 34.3288 61.5683 33.8698 61.2667 33.2798C60.9684 32.6899 60.8192 32.0005 60.8192 31.2116C60.8192 30.4228 60.9684 29.7318 61.2667 29.1385C61.5683 28.5452 61.9925 28.0845 62.5394 27.7564C63.0863 27.4283 63.7326 27.2642 64.4783 27.2642C65.2241 27.2642 65.8704 27.4283 66.4173 27.7564C66.9641 28.0845 67.3867 28.5452 67.685 29.1385C67.9866 29.7318 68.1374 30.4228 68.1374 31.2116C68.1374 32.0005 67.9866 32.6899 67.685 33.2798C67.3867 33.8698 66.9641 34.3288 66.4173 34.657C65.8704 34.9851 65.2241 35.1491 64.4783 35.1491ZM64.4883 33.7074C64.8926 33.7074 65.2307 33.5964 65.5025 33.3743C65.7743 33.1489 65.9764 32.8473 66.109 32.4695C66.2449 32.0916 66.3129 31.6707 66.3129 31.2067C66.3129 30.7393 66.2449 30.3168 66.109 29.9389C65.9764 29.5578 65.7743 29.2545 65.5025 29.0291C65.2307 28.8037 64.8926 28.6911 64.4883 28.6911C64.074 28.6911 63.7293 28.8037 63.4542 29.0291C63.1824 29.2545 62.9786 29.5578 62.8427 29.9389C62.7101 30.3168 62.6438 30.7393 62.6438 31.2067C62.6438 31.6707 62.7101 32.0916 62.8427 32.4695C62.9786 32.8473 63.1824 33.1489 63.4542 33.3743C63.7293 33.5964 64.074 33.7074 64.4883 33.7074ZM69.665 35V27.3636H71.41V28.6364H71.4895C71.6287 28.1955 71.8674 27.8558 72.2054 27.6172C72.5468 27.3752 72.9363 27.2543 73.3738 27.2543C73.4732 27.2543 73.5842 27.2592 73.7069 27.2692C73.8328 27.2758 73.9372 27.2874 74.0201 27.304V28.9595C73.9438 28.933 73.8229 28.9098 73.6571 28.8899C73.4947 28.8667 73.3373 28.8551 73.1848 28.8551C72.8567 28.8551 72.5617 28.9264 72.2999 29.0689C72.0414 29.2081 71.8375 29.402 71.6884 29.6506C71.5392 29.8991 71.4647 30.1858 71.4647 30.5107V35H69.665ZM75.2157 35V27.3636H76.9359V28.6612H77.0254C77.1845 28.2237 77.448 27.8823 77.8159 27.6371C78.1838 27.3885 78.6229 27.2642 79.1333 27.2642C79.6504 27.2642 80.0862 27.3902 80.4409 27.642C80.7988 27.8906 81.0507 28.2304 81.1966 28.6612H81.2761C81.4451 28.237 81.7302 27.8989 82.1312 27.647C82.5356 27.3918 83.0145 27.2642 83.568 27.2642C84.2707 27.2642 84.844 27.4863 85.2882 27.9304C85.7323 28.3745 85.9544 29.0225 85.9544 29.8743V35H84.1497V30.1527C84.1497 29.6787 84.0237 29.3324 83.7718 29.1136C83.5199 28.8916 83.2117 28.7805 82.8471 28.7805C82.4129 28.7805 82.0732 28.9164 81.8279 29.1882C81.586 29.4567 81.465 29.8063 81.465 30.2372V35H79.7001V30.0781C79.7001 29.6837 79.5808 29.3688 79.3422 29.1335C79.1068 28.8982 78.7986 28.7805 78.4174 28.7805C78.1589 28.7805 77.9236 28.8468 77.7115 28.9794C77.4993 29.1087 77.3303 29.2926 77.2044 29.5312C77.0784 29.7666 77.0154 30.0417 77.0154 30.3565V35H75.2157ZM89.9776 35.1541C89.4937 35.1541 89.0579 35.0679 88.6701 34.8956C88.2856 34.7199 87.9807 34.4614 87.7553 34.12C87.5333 33.7786 87.4222 33.3577 87.4222 32.8572C87.4222 32.4264 87.5018 32.0701 87.6609 31.7884C87.82 31.5066 88.0371 31.2812 88.3121 31.1122C88.5872 30.9432 88.8971 30.8156 89.2418 30.7294C89.5898 30.6399 89.9495 30.5753 90.3207 30.5355C90.7681 30.4891 91.131 30.4477 91.4094 30.4112C91.6879 30.3714 91.89 30.3118 92.016 30.2322C92.1452 30.1494 92.2099 30.0218 92.2099 29.8494V29.8196C92.2099 29.4451 92.0988 29.1551 91.8768 28.9496C91.6547 28.7441 91.3349 28.6413 90.9173 28.6413C90.4764 28.6413 90.1268 28.7375 89.8683 28.9297C89.613 29.1219 89.4407 29.349 89.3512 29.6108L87.6708 29.3722C87.8034 28.9081 88.0221 28.5204 88.3271 28.2088C88.632 27.8939 89.0049 27.6586 89.4457 27.5028C89.8865 27.3438 90.3737 27.2642 90.9073 27.2642C91.2752 27.2642 91.6415 27.3073 92.006 27.3935C92.3706 27.4796 92.7037 27.6222 93.0053 27.821C93.3069 28.0166 93.5489 28.2834 93.7312 28.6214C93.9168 28.9595 94.0096 29.3821 94.0096 29.8892V35H92.2795V33.951H92.2198C92.1104 34.1631 91.9563 34.362 91.7575 34.5476C91.5619 34.7299 91.315 34.8774 91.0167 34.9901C90.7217 35.0994 90.3754 35.1541 89.9776 35.1541ZM90.445 33.8317C90.8062 33.8317 91.1194 33.7604 91.3846 33.6179C91.6497 33.4721 91.8536 33.2798 91.9961 33.0412C92.1419 32.8026 92.2148 32.5424 92.2148 32.2607V31.3608C92.1585 31.4072 92.0624 31.4503 91.9265 31.4901C91.7939 31.5298 91.6448 31.5646 91.479 31.5945C91.3133 31.6243 91.1493 31.6508 90.9869 31.674C90.8245 31.6972 90.6836 31.7171 90.5643 31.7337C90.2958 31.7701 90.0555 31.8298 89.8434 31.9126C89.6313 31.9955 89.4639 32.1115 89.3413 32.2607C89.2186 32.4065 89.1573 32.5954 89.1573 32.8274C89.1573 33.1589 89.2783 33.4091 89.5202 33.5781C89.7622 33.7472 90.0704 33.8317 90.445 33.8317ZM99.1502 35.1491C98.3879 35.1491 97.7333 34.9818 97.1864 34.647C96.6429 34.3123 96.2236 33.8499 95.9286 33.2599C95.637 32.6667 95.4911 31.9839 95.4911 31.2116C95.4911 30.4361 95.6403 29.7517 95.9386 29.1584C96.2369 28.5618 96.6578 28.0978 97.2013 27.7663C97.7482 27.4316 98.3945 27.2642 99.1403 27.2642C99.7601 27.2642 100.309 27.3786 100.786 27.6072C101.266 27.8326 101.649 28.1525 101.934 28.5668C102.219 28.9777 102.382 29.4583 102.422 30.0085H100.701C100.632 29.6406 100.466 29.334 100.204 29.0888C99.9457 28.8402 99.5993 28.7159 99.1651 28.7159C98.7972 28.7159 98.4741 28.8153 98.1957 29.0142C97.9173 29.2098 97.7002 29.4915 97.5444 29.8594C97.3919 30.2273 97.3157 30.6681 97.3157 31.1818C97.3157 31.7022 97.3919 32.1496 97.5444 32.5241C97.6969 32.8954 97.9106 33.1821 98.1857 33.3842C98.4641 33.5831 98.7906 33.6825 99.1651 33.6825C99.4303 33.6825 99.6673 33.6328 99.8761 33.5334C100.088 33.4306 100.266 33.2831 100.408 33.0909C100.551 32.8987 100.648 32.665 100.701 32.3899H102.422C102.378 32.9302 102.219 33.4091 101.944 33.8267C101.669 34.241 101.295 34.5658 100.821 34.8011C100.347 35.0331 99.7899 35.1491 99.1502 35.1491ZM103.899 35V27.3636H105.699V35H103.899ZM104.804 26.2798C104.516 26.2798 104.269 26.1854 104.063 25.9964C103.861 25.8042 103.76 25.5739 103.76 25.3054C103.76 25.0336 103.863 24.8033 104.068 24.6143C104.274 24.4221 104.519 24.326 104.804 24.326C105.089 24.326 105.333 24.4221 105.535 24.6143C105.74 24.8033 105.843 25.0336 105.843 25.3054C105.843 25.5739 105.74 25.8042 105.535 25.9964C105.333 26.1854 105.089 26.2798 104.804 26.2798ZM109.349 30.5256V35H107.55V27.3636H109.27V28.6612H109.359C109.535 28.2337 109.815 27.8939 110.2 27.642C110.587 27.3902 111.066 27.2642 111.636 27.2642C112.163 27.2642 112.622 27.3769 113.013 27.6023C113.408 27.8277 113.713 28.1541 113.928 28.5817C114.147 29.0092 114.255 29.5279 114.251 30.1378V35H112.452V30.4162C112.452 29.9058 112.319 29.5064 112.054 29.218C111.792 28.9297 111.429 28.7855 110.965 28.7855C110.65 28.7855 110.37 28.8551 110.125 28.9943C109.883 29.1302 109.692 29.3274 109.553 29.5859C109.417 29.8445 109.349 30.1577 109.349 30.5256ZM119.462 35.1491C118.696 35.1491 118.035 34.9901 117.478 34.6719C116.924 34.3504 116.499 33.8963 116.2 33.3097C115.902 32.7197 115.753 32.0253 115.753 31.2266C115.753 30.4411 115.902 29.7517 116.2 29.1584C116.502 28.5618 116.923 28.0978 117.463 27.7663C118.003 27.4316 118.638 27.2642 119.367 27.2642C119.838 27.2642 120.282 27.3404 120.7 27.4929C121.121 27.642 121.492 27.8741 121.813 28.1889C122.138 28.5038 122.393 28.9048 122.579 29.392C122.764 29.8759 122.857 30.4527 122.857 31.1222V31.674H116.598V30.4609H121.132C121.129 30.1162 121.054 29.8097 120.908 29.5412C120.763 29.2694 120.559 29.0556 120.297 28.8999C120.038 28.7441 119.737 28.6662 119.392 28.6662C119.024 28.6662 118.701 28.7557 118.423 28.9347C118.144 29.1103 117.927 29.3423 117.771 29.6307C117.619 29.9157 117.541 30.2289 117.538 30.5703V31.6293C117.538 32.0734 117.619 32.4545 117.781 32.7727C117.944 33.0876 118.171 33.3295 118.462 33.4986C118.754 33.6643 119.095 33.7472 119.487 33.7472C119.748 33.7472 119.985 33.7107 120.197 33.6378C120.41 33.5616 120.594 33.4505 120.749 33.3047C120.905 33.1589 121.023 32.9782 121.102 32.7628L122.783 32.9517C122.677 33.3958 122.474 33.7836 122.176 34.1151C121.881 34.4432 121.503 34.6984 121.043 34.8807C120.582 35.0597 120.055 35.1491 119.462 35.1491ZM119.317 26.2798C119.029 26.2798 118.782 26.1854 118.577 25.9964C118.375 25.8042 118.273 25.5739 118.273 25.3054C118.273 25.0336 118.376 24.8033 118.582 24.6143C118.787 24.4221 119.032 24.326 119.317 24.326C119.603 24.326 119.846 24.4221 120.048 24.6143C120.254 24.8033 120.357 25.0336 120.357 25.3054C120.357 25.5739 120.254 25.8042 120.048 25.9964C119.846 26.1854 119.603 26.2798 119.317 26.2798ZM133.888 29.3821L132.247 29.5611C132.201 29.3954 132.12 29.2396 132.004 29.0938C131.891 28.9479 131.739 28.8303 131.546 28.7408C131.354 28.6513 131.119 28.6065 130.84 28.6065C130.466 28.6065 130.151 28.6877 129.896 28.8501C129.644 29.0125 129.52 29.223 129.523 29.4815C129.52 29.7036 129.601 29.8842 129.767 30.0234C129.936 30.1626 130.214 30.277 130.602 30.3665L131.904 30.6449C132.627 30.8007 133.164 31.0476 133.515 31.3857C133.87 31.7237 134.049 32.1662 134.052 32.7131C134.049 33.1937 133.908 33.6179 133.629 33.9858C133.354 34.3504 132.972 34.6354 132.481 34.8409C131.99 35.0464 131.427 35.1491 130.791 35.1491C129.856 35.1491 129.104 34.9536 128.534 34.5625C127.963 34.1681 127.624 33.6196 127.514 32.9169L129.269 32.7479C129.349 33.0926 129.518 33.3527 129.776 33.5284C130.035 33.7041 130.371 33.7919 130.786 33.7919C131.213 33.7919 131.556 33.7041 131.815 33.5284C132.077 33.3527 132.208 33.1357 132.208 32.8771C132.208 32.6584 132.123 32.4777 131.954 32.3352C131.788 32.1927 131.53 32.0833 131.178 32.0071L129.876 31.7337C129.143 31.5812 128.602 31.3243 128.25 30.9631C127.899 30.5985 127.725 30.1378 127.728 29.581C127.725 29.1103 127.852 28.7027 128.111 28.358C128.373 28.0099 128.736 27.7415 129.2 27.5526C129.667 27.3603 130.206 27.2642 130.816 27.2642C131.71 27.2642 132.415 27.4548 132.928 27.8359C133.445 28.2171 133.765 28.7325 133.888 29.3821ZM135.536 35V27.3636H137.336V35H135.536ZM136.441 26.2798C136.153 26.2798 135.906 26.1854 135.7 25.9964C135.498 25.8042 135.397 25.5739 135.397 25.3054C135.397 25.0336 135.5 24.8033 135.705 24.6143C135.911 24.4221 136.156 24.326 136.441 24.326C136.726 24.326 136.97 24.4221 137.172 24.6143C137.377 24.8033 137.48 25.0336 137.48 25.3054C137.48 25.5739 137.377 25.8042 137.172 25.9964C136.97 26.1854 136.726 26.2798 136.441 26.2798ZM145.222 29.3821L143.581 29.5611C143.535 29.3954 143.454 29.2396 143.338 29.0938C143.225 28.9479 143.073 28.8303 142.88 28.7408C142.688 28.6513 142.453 28.6065 142.174 28.6065C141.8 28.6065 141.485 28.6877 141.23 28.8501C140.978 29.0125 140.854 29.223 140.857 29.4815C140.854 29.7036 140.935 29.8842 141.1 30.0234C141.27 30.1626 141.548 30.277 141.936 30.3665L143.238 30.6449C143.961 30.8007 144.498 31.0476 144.849 31.3857C145.204 31.7237 145.383 32.1662 145.386 32.7131C145.383 33.1937 145.242 33.6179 144.963 33.9858C144.688 34.3504 144.306 34.6354 143.815 34.8409C143.324 35.0464 142.761 35.1491 142.125 35.1491C141.19 35.1491 140.438 34.9536 139.868 34.5625C139.297 34.1681 138.958 33.6196 138.848 32.9169L140.603 32.7479C140.683 33.0926 140.852 33.3527 141.11 33.5284C141.369 33.7041 141.705 33.7919 142.12 33.7919C142.547 33.7919 142.89 33.7041 143.149 33.5284C143.411 33.3527 143.542 33.1357 143.542 32.8771C143.542 32.6584 143.457 32.4777 143.288 32.3352C143.122 32.1927 142.864 32.0833 142.512 32.0071L141.21 31.7337C140.477 31.5812 139.935 31.3243 139.584 30.9631C139.233 30.5985 139.059 30.1378 139.062 29.581C139.059 29.1103 139.186 28.7027 139.445 28.358C139.707 28.0099 140.07 27.7415 140.534 27.5526C141.001 27.3603 141.54 27.2642 142.15 27.2642C143.044 27.2642 143.749 27.4548 144.262 27.8359C144.779 28.2171 145.099 28.7325 145.222 29.3821ZM150.683 27.3636V28.7557H146.293V27.3636H150.683ZM147.377 25.5341H149.177V32.7031C149.177 32.9451 149.213 33.1307 149.286 33.2599C149.362 33.3859 149.462 33.4721 149.585 33.5185C149.707 33.5649 149.843 33.5881 149.992 33.5881C150.105 33.5881 150.208 33.5798 150.3 33.5632C150.397 33.5466 150.469 33.5317 150.519 33.5185L150.822 34.9254C150.726 34.9586 150.589 34.995 150.41 35.0348C150.234 35.0746 150.019 35.0978 149.763 35.1044C149.313 35.1177 148.907 35.0497 148.545 34.9006C148.184 34.7481 147.897 34.5128 147.685 34.1946C147.477 33.8764 147.374 33.4787 147.377 33.0014V25.5341ZM155.487 35.1491C154.721 35.1491 154.06 34.9901 153.503 34.6719C152.95 34.3504 152.524 33.8963 152.226 33.3097C151.927 32.7197 151.778 32.0253 151.778 31.2266C151.778 30.4411 151.927 29.7517 152.226 29.1584C152.527 28.5618 152.948 28.0978 153.488 27.7663C154.029 27.4316 154.663 27.2642 155.393 27.2642C155.863 27.2642 156.307 27.3404 156.725 27.4929C157.146 27.642 157.517 27.8741 157.839 28.1889C158.163 28.5038 158.419 28.9048 158.604 29.392C158.79 29.8759 158.883 30.4527 158.883 31.1222V31.674H152.623V30.4609H157.157C157.154 30.1162 157.08 29.8097 156.934 29.5412C156.788 29.2694 156.584 29.0556 156.322 28.8999C156.064 28.7441 155.762 28.6662 155.417 28.6662C155.05 28.6662 154.726 28.7557 154.448 28.9347C154.17 29.1103 153.952 29.3423 153.797 29.6307C153.644 29.9157 153.566 30.2289 153.563 30.5703V31.6293C153.563 32.0734 153.644 32.4545 153.807 32.7727C153.969 33.0876 154.196 33.3295 154.488 33.4986C154.779 33.6643 155.121 33.7472 155.512 33.7472C155.774 33.7472 156.011 33.7107 156.223 33.6378C156.435 33.5616 156.619 33.4505 156.775 33.3047C156.93 33.1589 157.048 32.9782 157.128 32.7628L158.808 32.9517C158.702 33.3958 158.5 33.7836 158.202 34.1151C157.907 34.4432 157.529 34.6984 157.068 34.8807C156.607 35.0597 156.08 35.1491 155.487 35.1491ZM160.405 35V27.3636H162.125V28.6612H162.215C162.374 28.2237 162.637 27.8823 163.005 27.6371C163.373 27.3885 163.812 27.2642 164.323 27.2642C164.84 27.2642 165.276 27.3902 165.63 27.642C165.988 27.8906 166.24 28.2304 166.386 28.6612H166.466C166.635 28.237 166.92 27.8989 167.321 27.647C167.725 27.3918 168.204 27.2642 168.757 27.2642C169.46 27.2642 170.033 27.4863 170.478 27.9304C170.922 28.3745 171.144 29.0225 171.144 29.8743V35H169.339V30.1527C169.339 29.6787 169.213 29.3324 168.961 29.1136C168.709 28.8916 168.401 28.7805 168.037 28.7805C167.602 28.7805 167.263 28.9164 167.017 29.1882C166.775 29.4567 166.654 29.8063 166.654 30.2372V35H164.89V30.0781C164.89 29.6837 164.77 29.3688 164.532 29.1335C164.296 28.8982 163.988 28.7805 163.607 28.7805C163.348 28.7805 163.113 28.8468 162.901 28.9794C162.689 29.1087 162.52 29.2926 162.394 29.5312C162.268 29.7666 162.205 30.0417 162.205 30.3565V35H160.405ZM175.167 35.1541C174.683 35.1541 174.247 35.0679 173.86 34.8956C173.475 34.7199 173.17 34.4614 172.945 34.12C172.723 33.7786 172.612 33.3577 172.612 32.8572C172.612 32.4264 172.691 32.0701 172.85 31.7884C173.009 31.5066 173.227 31.2812 173.502 31.1122C173.777 30.9432 174.087 30.8156 174.431 30.7294C174.779 30.6399 175.139 30.5753 175.51 30.5355C175.958 30.4891 176.32 30.4477 176.599 30.4112C176.877 30.3714 177.079 30.3118 177.205 30.2322C177.335 30.1494 177.399 30.0218 177.399 29.8494V29.8196C177.399 29.4451 177.288 29.1551 177.066 28.9496C176.844 28.7441 176.524 28.6413 176.107 28.6413C175.666 28.6413 175.316 28.7375 175.058 28.9297C174.802 29.1219 174.63 29.349 174.541 29.6108L172.86 29.3722C172.993 28.9081 173.212 28.5204 173.517 28.2088C173.821 27.8939 174.194 27.6586 174.635 27.5028C175.076 27.3438 175.563 27.2642 176.097 27.2642C176.465 27.2642 176.831 27.3073 177.195 27.3935C177.56 27.4796 177.893 27.6222 178.195 27.821C178.496 28.0166 178.738 28.2834 178.921 28.6214C179.106 28.9595 179.199 29.3821 179.199 29.8892V35H177.469V33.951H177.409C177.3 34.1631 177.146 34.362 176.947 34.5476C176.751 34.7299 176.504 34.8774 176.206 34.9901C175.911 35.0994 175.565 35.1541 175.167 35.1541ZM175.634 33.8317C175.996 33.8317 176.309 33.7604 176.574 33.6179C176.839 33.4721 177.043 33.2798 177.186 33.0412C177.331 32.8026 177.404 32.5424 177.404 32.2607V31.3608C177.348 31.4072 177.252 31.4503 177.116 31.4901C176.983 31.5298 176.834 31.5646 176.669 31.5945C176.503 31.6243 176.339 31.6508 176.176 31.674C176.014 31.6972 175.873 31.7171 175.754 31.7337C175.485 31.7701 175.245 31.8298 175.033 31.9126C174.821 31.9955 174.653 32.1115 174.531 32.2607C174.408 32.4065 174.347 32.5954 174.347 32.8274C174.347 33.1589 174.468 33.4091 174.71 33.5781C174.952 33.7472 175.26 33.8317 175.634 33.8317Z" fill="#1C1C1E"/>
<defs>
<clipPath id="clip0_377_9123">
<rect width="35.0494" height="40" fill="white"/>
</clipPath>
</defs>
</svg>
