<svg width="83" height="28" viewBox="0 0 83 28" fill="none" xmlns="http://www.w3.org/2000/svg">
<circle cx="14" cy="14" r="14" fill="#C4C4C4"/>
<path d="M39.7793 18.8818H45.3779V21H37.1426V8.20312H39.7793V18.8818ZM56.8477 14.8916C56.8477 16.1514 56.625 17.2559 56.1797 18.2051C55.7344 19.1543 55.0957 19.8867 54.2637 20.4023C53.4375 20.918 52.4883 21.1758 51.416 21.1758C50.3555 21.1758 49.4092 20.9209 48.5771 20.4111C47.7451 19.9014 47.1006 19.1748 46.6436 18.2314C46.1865 17.2822 45.9551 16.1924 45.9492 14.9619V14.3291C45.9492 13.0693 46.1748 11.9619 46.626 11.0068C47.083 10.0459 47.7246 9.31055 48.5508 8.80078C49.3828 8.28516 50.332 8.02734 51.3984 8.02734C52.4648 8.02734 53.4111 8.28516 54.2373 8.80078C55.0693 9.31055 55.7109 10.0459 56.1621 11.0068C56.6191 11.9619 56.8477 13.0664 56.8477 14.3203V14.8916ZM54.1758 14.3115C54.1758 12.9697 53.9355 11.9502 53.4551 11.2529C52.9746 10.5557 52.2891 10.207 51.3984 10.207C50.5137 10.207 49.8311 10.5527 49.3506 11.2441C48.8701 11.9297 48.627 12.9375 48.6211 14.2676V14.8916C48.6211 16.1982 48.8613 17.2119 49.3418 17.9326C49.8223 18.6533 50.5137 19.0137 51.416 19.0137C52.3008 19.0137 52.9805 18.668 53.4551 17.9766C53.9297 17.2793 54.1699 16.2656 54.1758 14.9355V14.3115ZM68.8887 19.3828C68.4141 19.9512 67.7432 20.3936 66.876 20.71C66.0088 21.0205 65.0479 21.1758 63.9932 21.1758C62.8857 21.1758 61.9131 20.9355 61.0752 20.4551C60.2432 19.9688 59.5986 19.2656 59.1416 18.3457C58.6904 17.4258 58.459 16.3447 58.4473 15.1025V14.2324C58.4473 12.9551 58.6611 11.8506 59.0889 10.9189C59.5225 9.98145 60.1436 9.2666 60.9521 8.77441C61.7666 8.27637 62.7188 8.02734 63.8086 8.02734C65.3262 8.02734 66.5127 8.39062 67.3682 9.11719C68.2236 9.83789 68.7305 10.8896 68.8887 12.2725H66.3223C66.2051 11.54 65.9443 11.0039 65.54 10.6641C65.1416 10.3242 64.5908 10.1543 63.8877 10.1543C62.9912 10.1543 62.3086 10.4912 61.8398 11.165C61.3711 11.8389 61.1338 12.8408 61.1279 14.1709V14.9883C61.1279 16.3301 61.3828 17.3438 61.8926 18.0293C62.4023 18.7148 63.1494 19.0576 64.1338 19.0576C65.124 19.0576 65.8301 18.8467 66.252 18.4248V16.2188H63.8525V14.2764H68.8887V19.3828ZM81.5449 14.8916C81.5449 16.1514 81.3223 17.2559 80.877 18.2051C80.4316 19.1543 79.793 19.8867 78.9609 20.4023C78.1348 20.918 77.1855 21.1758 76.1133 21.1758C75.0527 21.1758 74.1064 20.9209 73.2744 20.4111C72.4424 19.9014 71.7979 19.1748 71.3408 18.2314C70.8838 17.2822 70.6523 16.1924 70.6465 14.9619V14.3291C70.6465 13.0693 70.8721 11.9619 71.3232 11.0068C71.7803 10.0459 72.4219 9.31055 73.248 8.80078C74.0801 8.28516 75.0293 8.02734 76.0957 8.02734C77.1621 8.02734 78.1084 8.28516 78.9346 8.80078C79.7666 9.31055 80.4082 10.0459 80.8594 11.0068C81.3164 11.9619 81.5449 13.0664 81.5449 14.3203V14.8916ZM78.873 14.3115C78.873 12.9697 78.6328 11.9502 78.1523 11.2529C77.6719 10.5557 76.9863 10.207 76.0957 10.207C75.2109 10.207 74.5283 10.5527 74.0479 11.2441C73.5674 11.9297 73.3242 12.9375 73.3184 14.2676V14.8916C73.3184 16.1982 73.5586 17.2119 74.0391 17.9326C74.5195 18.6533 75.2109 19.0137 76.1133 19.0137C76.998 19.0137 77.6777 18.668 78.1523 17.9766C78.627 17.2793 78.8672 16.2656 78.873 14.9355V14.3115Z" fill="white"/>
</svg>
