<svg width="87" height="21" viewBox="0 0 87 21" fill="none" xmlns="http://www.w3.org/2000/svg">
<path d="M2.84 0.219999H5.64L3.72 16H0.92L2.84 0.219999ZM11.2831 16.24C10.7631 16.24 10.2231 16.16 9.66313 16C9.10313 15.8267 8.57646 15.5667 8.08313 15.22C7.60313 14.8733 7.20979 14.4267 6.90313 13.88C6.60979 13.3333 6.46313 12.68 6.46313 11.92C6.46313 11.3867 6.54979 10.8267 6.72313 10.24C6.90979 9.65333 7.20313 9.10667 7.60313 8.6C8.00313 8.08 8.53646 7.66 9.20313 7.34C9.86979 7.02 10.6831 6.86 11.6431 6.86C12.4298 6.86 13.1831 7.02667 13.9031 7.36C14.6365 7.68 15.2365 8.16 15.7031 8.8C16.1831 9.44 16.4231 10.2333 16.4231 11.18C16.4231 11.5133 16.3765 11.9067 16.2831 12.36C16.1898 12.8 16.0298 13.2467 15.8031 13.7C15.5765 14.1533 15.2698 14.5733 14.8831 14.96C14.4965 15.3333 14.0031 15.64 13.4031 15.88C12.8165 16.12 12.1098 16.24 11.2831 16.24ZM11.3631 13.94C11.9365 13.94 12.3831 13.7933 12.7031 13.5C13.0231 13.2067 13.2498 12.8533 13.3831 12.44C13.5165 12.0267 13.5831 11.6467 13.5831 11.3C13.5831 10.8333 13.5031 10.46 13.3431 10.18C13.1965 9.88667 13.0098 9.66667 12.7831 9.52C12.5565 9.37333 12.3298 9.27333 12.1031 9.22C11.8765 9.16667 11.6898 9.14 11.5431 9.14C10.9965 9.14 10.5565 9.28667 10.2231 9.58C9.88979 9.86 9.64979 10.2067 9.50313 10.62C9.35646 11.0333 9.28313 11.42 9.28313 11.78C9.28313 12.38 9.40313 12.8333 9.64313 13.14C9.89646 13.4467 10.1831 13.66 10.5031 13.78C10.8365 13.8867 11.1231 13.94 11.3631 13.94ZM22.508 20.4C21.6546 20.4 20.9413 20.3067 20.368 20.12C19.808 19.9333 19.3413 19.7067 18.968 19.44C18.5946 19.1733 18.2613 18.92 17.968 18.68L19.848 16.76C20.048 16.9467 20.2746 17.1333 20.528 17.32C20.7813 17.5067 21.088 17.66 21.448 17.78C21.8213 17.9 22.2613 17.96 22.768 17.96C23.1546 17.96 23.5146 17.88 23.848 17.72C24.1946 17.5733 24.4813 17.3533 24.708 17.06C24.948 16.7667 25.088 16.4 25.128 15.96L25.348 14.04L25.428 14.54C25.188 14.9933 24.8013 15.3933 24.268 15.74C23.7346 16.0733 23.0546 16.24 22.228 16.24C21.428 16.24 20.7013 16.0667 20.048 15.72C19.408 15.36 18.8946 14.84 18.508 14.16C18.1346 13.48 17.948 12.6467 17.948 11.66C17.948 11.1667 18.048 10.64 18.248 10.08C18.4613 9.52 18.7746 8.99333 19.188 8.5C19.6146 8.00667 20.148 7.60667 20.788 7.3C21.428 6.98 22.1813 6.82 23.048 6.82C23.8213 6.82 24.468 6.93333 24.988 7.16C25.5213 7.37333 25.908 7.64 26.148 7.96L25.928 8.38L26.408 7.26H28.988L27.828 16.46C27.7346 17.3133 27.4346 18.0333 26.928 18.62C26.4213 19.2067 25.7813 19.6467 25.008 19.94C24.2346 20.2467 23.4013 20.4 22.508 20.4ZM23.548 9.1C23.0546 9.1 22.6346 9.18667 22.288 9.36C21.9413 9.52 21.6546 9.73333 21.428 10C21.2146 10.2533 21.0546 10.5267 20.948 10.82C20.8546 11.1133 20.808 11.3933 20.808 11.66C20.808 12.1533 20.9013 12.5733 21.088 12.92C21.288 13.2533 21.568 13.5133 21.928 13.7C22.288 13.8733 22.7146 13.96 23.208 13.96C23.5013 13.96 23.788 13.9133 24.068 13.82C24.348 13.7133 24.608 13.5667 24.848 13.38C25.1013 13.18 25.328 12.9333 25.528 12.64L25.788 10.5C25.6946 10.2067 25.5413 9.96 25.328 9.76C25.128 9.54667 24.8746 9.38667 24.568 9.28C24.2746 9.16 23.9346 9.1 23.548 9.1ZM35.4628 16.24C34.9428 16.24 34.4028 16.16 33.8428 16C33.2828 15.8267 32.7561 15.5667 32.2628 15.22C31.7828 14.8733 31.3895 14.4267 31.0828 13.88C30.7895 13.3333 30.6428 12.68 30.6428 11.92C30.6428 11.3867 30.7295 10.8267 30.9028 10.24C31.0895 9.65333 31.3828 9.10667 31.7828 8.6C32.1828 8.08 32.7161 7.66 33.3828 7.34C34.0495 7.02 34.8628 6.86 35.8228 6.86C36.6095 6.86 37.3628 7.02667 38.0828 7.36C38.8161 7.68 39.4161 8.16 39.8828 8.8C40.3628 9.44 40.6028 10.2333 40.6028 11.18C40.6028 11.5133 40.5561 11.9067 40.4628 12.36C40.3695 12.8 40.2095 13.2467 39.9828 13.7C39.7561 14.1533 39.4495 14.5733 39.0628 14.96C38.6761 15.3333 38.1828 15.64 37.5828 15.88C36.9961 16.12 36.2895 16.24 35.4628 16.24ZM35.5428 13.94C36.1161 13.94 36.5628 13.7933 36.8828 13.5C37.2028 13.2067 37.4295 12.8533 37.5628 12.44C37.6961 12.0267 37.7628 11.6467 37.7628 11.3C37.7628 10.8333 37.6828 10.46 37.5228 10.18C37.3761 9.88667 37.1895 9.66667 36.9628 9.52C36.7361 9.37333 36.5095 9.27333 36.2828 9.22C36.0561 9.16667 35.8695 9.14 35.7228 9.14C35.1761 9.14 34.7361 9.28667 34.4028 9.58C34.0695 9.86 33.8295 10.2067 33.6828 10.62C33.5361 11.0333 33.4628 11.42 33.4628 11.78C33.4628 12.38 33.5828 12.8333 33.8228 13.14C34.0761 13.4467 34.3628 13.66 34.6828 13.78C35.0161 13.8867 35.3028 13.94 35.5428 13.94ZM44.4477 1.28H53.6477L53.3077 4.04H47.1077L46.7077 7.44H52.0677L51.7077 10.22H46.3477L45.6477 16H42.6477L44.4477 1.28ZM58.1191 16.24C57.5991 16.24 57.0591 16.16 56.4991 16C55.9391 15.8267 55.4124 15.5667 54.9191 15.22C54.4391 14.8733 54.0457 14.4267 53.7391 13.88C53.4457 13.3333 53.2991 12.68 53.2991 11.92C53.2991 11.3867 53.3857 10.8267 53.5591 10.24C53.7457 9.65333 54.0391 9.10667 54.4391 8.6C54.8391 8.08 55.3724 7.66 56.0391 7.34C56.7057 7.02 57.5191 6.86 58.4791 6.86C59.2657 6.86 60.0191 7.02667 60.7391 7.36C61.4724 7.68 62.0724 8.16 62.5391 8.8C63.0191 9.44 63.2591 10.2333 63.2591 11.18C63.2591 11.5133 63.2124 11.9067 63.1191 12.36C63.0257 12.8 62.8657 13.2467 62.6391 13.7C62.4124 14.1533 62.1057 14.5733 61.7191 14.96C61.3324 15.3333 60.8391 15.64 60.2391 15.88C59.6524 16.12 58.9457 16.24 58.1191 16.24ZM58.1991 13.94C58.7724 13.94 59.2191 13.7933 59.5391 13.5C59.8591 13.2067 60.0857 12.8533 60.2191 12.44C60.3524 12.0267 60.4191 11.6467 60.4191 11.3C60.4191 10.8333 60.3391 10.46 60.1791 10.18C60.0324 9.88667 59.8457 9.66667 59.6191 9.52C59.3924 9.37333 59.1657 9.27333 58.9391 9.22C58.7124 9.16667 58.5257 9.14 58.3791 9.14C57.8324 9.14 57.3924 9.28667 57.0591 9.58C56.7257 9.86 56.4857 10.2067 56.3391 10.62C56.1924 11.0333 56.1191 11.42 56.1191 11.78C56.1191 12.38 56.2391 12.8333 56.4791 13.14C56.7324 13.4467 57.0191 13.66 57.3391 13.78C57.6724 13.8867 57.9591 13.94 58.1991 13.94ZM66.8439 0.219999H69.6439L67.7239 16H64.9239L66.8439 0.219999ZM71.687 7.26H74.487L73.407 16H70.607L71.687 7.26ZM71.867 4.18C71.867 3.75333 72.0137 3.39333 72.307 3.1C72.6004 2.80667 72.987 2.66 73.467 2.66C73.8004 2.66 74.1337 2.76 74.467 2.96C74.8004 3.14667 74.967 3.48 74.967 3.96C74.967 4.37333 74.8204 4.73333 74.527 5.04C74.2337 5.33333 73.847 5.48 73.367 5.48C73.0337 5.48 72.7004 5.38667 72.367 5.2C72.0337 5 71.867 4.66 71.867 4.18ZM80.9706 16.24C80.4506 16.24 79.9106 16.16 79.3506 16C78.7906 15.8267 78.264 15.5667 77.7706 15.22C77.2906 14.8733 76.8973 14.4267 76.5906 13.88C76.2973 13.3333 76.1506 12.68 76.1506 11.92C76.1506 11.3867 76.2373 10.8267 76.4106 10.24C76.5973 9.65333 76.8906 9.10667 77.2906 8.6C77.6906 8.08 78.224 7.66 78.8906 7.34C79.5573 7.02 80.3706 6.86 81.3306 6.86C82.1173 6.86 82.8706 7.02667 83.5906 7.36C84.324 7.68 84.924 8.16 85.3906 8.8C85.8706 9.44 86.1106 10.2333 86.1106 11.18C86.1106 11.5133 86.064 11.9067 85.9706 12.36C85.8773 12.8 85.7173 13.2467 85.4906 13.7C85.264 14.1533 84.9573 14.5733 84.5706 14.96C84.184 15.3333 83.6906 15.64 83.0906 15.88C82.504 16.12 81.7973 16.24 80.9706 16.24ZM81.0506 13.94C81.624 13.94 82.0706 13.7933 82.3906 13.5C82.7106 13.2067 82.9373 12.8533 83.0706 12.44C83.204 12.0267 83.2706 11.6467 83.2706 11.3C83.2706 10.8333 83.1906 10.46 83.0306 10.18C82.884 9.88667 82.6973 9.66667 82.4706 9.52C82.244 9.37333 82.0173 9.27333 81.7906 9.22C81.564 9.16667 81.3773 9.14 81.2306 9.14C80.684 9.14 80.244 9.28667 79.9106 9.58C79.5773 9.86 79.3373 10.2067 79.1906 10.62C79.044 11.0333 78.9706 11.42 78.9706 11.78C78.9706 12.38 79.0906 12.8333 79.3306 13.14C79.584 13.4467 79.8706 13.66 80.1906 13.78C80.524 13.8867 80.8106 13.94 81.0506 13.94Z" fill="black"/>
</svg>
