<?xml version="1.0" encoding="UTF-8" standalone="no"?>
<!-- Created with Inkscape (http://www.inkscape.org/) -->

<svg
   width="210mm"
   height="297mm"
   viewBox="0 0 210 297"
   version="1.1"
   id="svg5"
   xmlns="http://www.w3.org/2000/svg"
   xmlns:svg="http://www.w3.org/2000/svg">
  <defs
     id="defs2" />
  <g
     id="layer1">
    <g
       id="path476"
       class="UnoptimicedTransforms"
       transform="matrix(1,0,0,1.5769626,-7.125867,-22.859813)"
       style="fill:#ffffff">
      <path
         style="color:#000000;fill:#ffffff;fill-rule:evenodd;stroke-linecap:square;-inkscape-stroke:none;paint-order:markers stroke fill"
         d="m 62.224577,33.897907 -0.31269,-0.427064 -0.21372,0.157749 -99.581607,73.187998 -0.212138,0.1566 0.312731,0.42703 0.213715,-0.15774 99.581542,-73.18801 z m -98.579958,73.075283 0.312691,0.42706 0.21372,-0.15775 99.581607,-73.187993 0.212138,-0.1566 -0.312731,-0.427034 -0.213716,0.157745 -99.581542,73.188012 z m 102.060354,-73.075283 -0.312691,-0.427064 -0.21372,0.157749 -99.581607,73.187998 -0.212138,0.1566 0.312731,0.42703 0.213716,-0.15774 99.581542,-73.18801 z m -98.579958,73.075283 0.31269,0.42706 0.21372,-0.15775 99.581607,-73.187993 0.212138,-0.1566 -0.312731,-0.427034 -0.213715,0.157745 -99.581542,73.188012 z m 102.060353,-73.075283 -0.312691,-0.427064 -0.213719,0.157749 -99.581608,73.187998 -0.212138,0.1566 0.312731,0.42703 0.213716,-0.15774 99.581542,-73.18801 z m -98.579958,73.075283 0.312691,0.42706 0.213719,-0.15775 99.581608,-73.187993 0.212138,-0.1566 -0.312731,-0.427034 -0.213716,0.157745 -99.581542,73.188012 z m 102.060353,-73.075283 -0.31269,-0.427064 -0.21372,0.157749 -99.581607,73.187998 -0.212138,0.1566 0.312731,0.42703 0.213715,-0.15774 99.581542,-73.18801 z m -98.579958,73.075283 0.312691,0.42706 0.21372,-0.15775 99.581607,-73.187993 0.212138,-0.1566 -0.312731,-0.427034 -0.213716,0.157745 -99.581542,73.188012 z m 102.060354,-73.075283 -0.312691,-0.427064 -0.21372,0.157749 -99.581607,73.187998 -0.212138,0.1566 0.312731,0.42703 0.213716,-0.15774 99.581542,-73.18801 z m -98.579958,73.075283 0.31269,0.42706 0.21372,-0.15775 99.581607,-73.187993 0.212138,-0.1566 -0.312731,-0.427034 -0.213715,0.157745 -99.581542,73.188012 z m 102.060353,-73.075283 -0.312691,-0.427064 -0.213719,0.157749 -99.581608,73.187998 -0.212138,0.1566 0.312731,0.42703 0.213716,-0.15774 99.581542,-73.18801 z m -98.579958,73.075283 0.312691,0.42706 0.213719,-0.15775 99.581608,-73.187993 0.212138,-0.1566 -0.312731,-0.427034 -0.213716,0.157745 -99.581542,73.188012 z m 102.060353,-73.075283 -0.31269,-0.427064 -0.21372,0.157749 -99.581607,73.187998 -0.212138,0.1566 0.312731,0.42703 0.213715,-0.15774 99.581542,-73.18801 z m -98.579958,73.075283 0.312691,0.42706 0.21372,-0.15775 99.581607,-73.187993 0.212138,-0.1566 -0.312731,-0.427034 -0.213716,0.157745 -99.581542,73.188012 z m 102.060354,-73.075283 -0.312691,-0.427064 -0.21372,0.157749 -99.581607,73.187998 -0.212138,0.1566 0.312731,0.42703 0.213716,-0.15774 99.581542,-73.18801 z m -98.579958,73.075283 0.31269,0.42706 0.21372,-0.15775 99.581607,-73.187993 0.212138,-0.1566 -0.312731,-0.427034 -0.213715,0.157745 -99.581542,73.188012 z M 90.06774,33.897907 l -0.312691,-0.427064 -0.213719,0.157749 -99.581608,73.187998 -0.212138,0.1566 0.3127314,0.42703 0.2137155,-0.15774 99.5815421,-73.18801 z m -98.5799579,73.075283 0.3126905,0.42706 0.2137196,-0.15775 99.5816078,-73.187993 0.212138,-0.1566 -0.312731,-0.427034 -0.213716,0.157745 -99.5815419,73.188012 z M 93.548135,33.897907 l -0.31269,-0.427064 -0.21372,0.157749 -99.5816073,73.187998 -0.212138,0.1566 0.312731,0.42703 0.2137156,-0.15774 99.5815417,-73.18801 z m -98.5799576,73.075283 0.3126906,0.42706 0.2137195,-0.15775 99.5816075,-73.187993 0.212138,-0.1566 -0.312731,-0.427034 -0.213716,0.157745 -99.5815416,73.188012 z M 97.028531,33.897907 96.71584,33.470843 l -0.21372,0.157749 -99.581607,73.187998 -0.2121379,0.1566 0.312731,0.42703 0.2137155,-0.15774 99.5815424,-73.18801 z m -98.5799583,73.075283 0.3126906,0.42706 0.2137196,-0.15775 99.5816071,-73.187993 0.212138,-0.1566 -0.312731,-0.427034 -0.213715,0.157745 -99.5815422,73.188012 z M 100.50893,33.897907 l -0.31269,-0.427064 -0.213724,0.157749 -99.58160765,73.187998 -0.21213794,0.1566 0.312731,0.42703 0.21371552,-0.15774 L 100.29676,34.05447 Z m -98.5799619,73.075283 0.3126905,0.42706 0.2137196,-0.15775 99.5816118,-73.187993 0.21213,-0.1566 -0.31273,-0.427034 -0.21371,0.157745 L 2.1411351,106.81663 Z M 103.98932,33.897907 l -0.31269,-0.427064 -0.21372,0.157749 -99.5816063,73.187998 -0.212138,0.1566 0.312731,0.42703 0.2137156,-0.15774 L 103.77715,34.05447 Z M 5.4093634,106.97319 5.722054,107.40025 5.9357735,107.2425 105.51738,34.054507 l 0.21214,-0.1566 -0.31273,-0.427034 -0.21372,0.157745 L 5.6215304,106.81663 Z M 107.46972,33.897907 l -0.31269,-0.427064 -0.21372,0.157749 -99.581611,73.187998 -0.2121379,0.1566 0.312731,0.42703 0.2137155,-0.15774 99.5815424,-73.18801 z m -98.5799613,73.075283 0.3126906,0.42706 0.2137196,-0.15775 99.5816111,-73.187993 0.21213,-0.1566 -0.31273,-0.427034 -0.21371,0.157745 L 9.1019258,106.81663 Z M 110.95011,33.897907 l -0.31269,-0.427064 -0.21372,0.157749 -99.581606,73.187998 -0.212138,0.1566 0.312731,0.42703 0.213716,-0.15774 99.581537,-73.18801 z m -98.579956,73.075283 0.312691,0.42706 0.213719,-0.15775 99.581606,-73.187993 0.21214,-0.1566 -0.31273,-0.427034 -0.21372,0.157745 -99.581539,73.188012 z m 102.060356,-73.075283 -0.31269,-0.427064 -0.21372,0.157749 -99.58161,73.187998 -0.212138,0.1566 0.312731,0.42703 0.213715,-0.15774 99.581542,-73.18801 z m -98.579961,73.075283 0.312691,0.42706 0.21372,-0.15775 99.58161,-73.187993 0.21213,-0.1566 -0.31273,-0.427034 -0.21371,0.157745 -99.581544,73.188012 z M 117.9109,33.897907 l -0.31269,-0.427064 -0.21372,0.157749 -99.581605,73.187998 -0.212138,0.1566 0.312731,0.42703 0.213716,-0.15774 99.581546,-73.18801 z m -98.579955,73.075283 0.31269,0.42706 0.21372,-0.15775 99.581605,-73.187993 0.21214,-0.1566 -0.31273,-0.427034 -0.21372,0.157745 -99.581538,73.188012 z M 121.3913,33.897907 l -0.31269,-0.427064 -0.21372,0.157749 -99.58161,73.187998 -0.212138,0.1566 0.312731,0.42703 0.213716,-0.15774 99.581541,-73.18801 z m -98.57996,73.075283 0.312691,0.42706 0.213719,-0.15775 99.58161,-73.187993 0.21214,-0.1566 -0.31274,-0.427034 -0.21371,0.157745 -99.581543,73.188012 z m 102.06035,-73.075283 -0.31269,-0.427064 -0.21372,0.157749 -99.581604,73.187998 -0.212138,0.1566 0.312731,0.42703 0.213715,-0.15774 99.581546,-73.18801 z m -98.579955,73.075283 0.312691,0.42706 0.21372,-0.15775 99.581604,-73.187993 0.21214,-0.1566 -0.31273,-0.427034 -0.21372,0.157745 -99.581538,73.188012 z m 102.060355,-73.075283 -0.31269,-0.427064 -0.21372,0.157749 -99.581609,73.187998 -0.212138,0.1566 0.312731,0.42703 0.213716,-0.15774 99.58154,-73.18801 z m -98.579959,73.075283 0.31269,0.42706 0.21372,-0.15775 99.581609,-73.187993 0.21214,-0.1566 -0.31273,-0.427034 -0.21372,0.157745 -99.581542,73.188012 z m 102.060349,-73.075283 -0.31269,-0.427064 -0.21372,0.157749 -99.581604,73.187998 -0.212138,0.1566 0.312731,0.42703 0.213716,-0.15774 99.581545,-73.18801 z m -98.579954,73.075283 0.312691,0.42706 0.213719,-0.15775 99.581604,-73.187993 0.21214,-0.1566 -0.31273,-0.427034 -0.21371,0.157745 -99.581547,73.188012 z m 102.060354,-73.075283 -0.31269,-0.427064 -0.21372,0.157749 -99.581608,73.187998 -0.212138,0.1566 0.312731,0.42703 0.213715,-0.15774 99.58154,-73.18801 z m -98.579959,73.075283 0.312691,0.42706 0.21372,-0.15775 99.581608,-73.187993 0.21214,-0.1566 -0.31273,-0.427034 -0.21372,0.157745 -99.581542,73.188012 z m 102.060349,-73.075283 -0.31269,-0.427064 -0.21372,0.157749 -99.581603,73.187998 -0.212138,0.1566 0.312731,0.42703 0.213716,-0.15774 99.581544,-73.18801 z m -98.579953,73.075283 0.31269,0.42706 0.21372,-0.15775 99.581603,-73.187993 0.21214,-0.1566 -0.31273,-0.427034 -0.21371,0.157745 -99.581546,73.188012 z m 102.060353,-73.075283 -0.31269,-0.427064 -0.21372,0.157749 -99.581608,73.187998 -0.212138,0.1566 0.312731,0.42703 0.213716,-0.15774 99.581539,-73.18801 z m -98.579958,73.075283 0.312691,0.42706 0.213719,-0.15775 99.581608,-73.187993 0.21214,-0.1566 -0.31273,-0.427034 -0.21372,0.157745 -99.581541,73.188012 z m 102.060358,-73.075283 -0.3127,-0.427064 -0.21371,0.157749 -99.581612,73.187998 -0.212138,0.1566 0.312731,0.42703 0.213715,-0.15774 99.581544,-73.18801 z m -98.579963,73.075283 0.312691,0.42706 0.21372,-0.15775 99.581602,-73.187993 0.21214,-0.1566 -0.31273,-0.427034 -0.21371,0.157745 -99.581546,73.188012 z m 102.060353,-73.075283 -0.31269,-0.427064 -0.21372,0.157749 -99.581607,73.187998 -0.212138,0.1566 0.312731,0.42703 0.213716,-0.15774 99.581538,-73.18801 z m -98.579957,73.075283 0.31269,0.42706 0.21372,-0.15775 99.581607,-73.187993 0.21214,-0.1566 -0.31273,-0.427034 -0.21372,0.157745 -99.58154,73.188012 z m 102.060357,-73.075283 -0.31269,-0.427064 -0.21372,0.157749 -99.581612,73.187998 -0.212138,0.1566 0.312731,0.42703 0.213716,-0.15774 99.581543,-73.18801 z m -98.579962,73.075283 0.312691,0.42706 0.213719,-0.15775 99.581612,-73.187993 0.21213,-0.1566 -0.31273,-0.427034 -0.21371,0.157745 -99.581545,73.188012 z m 102.060352,-73.075283 -0.31269,-0.427064 -0.21372,0.157749 -99.581606,73.187998 -0.212138,0.1566 0.312731,0.42703 0.213715,-0.15774 99.581538,-73.18801 z m -98.579957,73.075283 0.312691,0.42706 0.21372,-0.15775 99.581606,-73.187993 0.21214,-0.1566 -0.31273,-0.427034 -0.21372,0.157745 -99.58154,73.188012 z m 102.060357,-73.075283 -0.31269,-0.427064 -0.21372,0.157749 -99.581611,73.187998 -0.212138,0.1566 0.312731,0.42703 0.213716,-0.15774 99.581542,-73.18801 z m -98.579961,73.075283 0.31269,0.42706 0.21372,-0.15775 99.581611,-73.187993 0.21213,-0.1566 -0.31273,-0.427034 -0.21371,0.157745 -99.581544,73.188012 z m 102.060351,-73.075283 -0.31269,-0.427064 -0.21372,0.157749 -99.581606,73.187998 -0.212138,0.1566 0.312731,0.42703 0.213716,-0.15774 99.581537,-73.18801 z m -98.579956,73.075283 0.312691,0.42706 0.213719,-0.15775 99.581606,-73.187993 0.21214,-0.1566 -0.31273,-0.427034 -0.21372,0.157745 -99.581539,73.188012 z m 102.060356,-73.075283 -0.31269,-0.427064 -0.21372,0.157749 -99.58161,73.187998 -0.212138,0.1566 0.312731,0.42703 0.213715,-0.15774 99.581542,-73.18801 z m -98.579961,73.075283 0.312691,0.42706 0.21372,-0.15775 99.58161,-73.187993 0.21213,-0.1566 -0.31273,-0.427034 -0.21371,0.157745 -99.581544,73.188012 z m 102.060351,-73.075283 -0.31269,-0.427064 -0.21372,0.157749 -99.581605,73.187998 -0.212138,0.1566 0.312731,0.42703 0.213716,-0.15774 99.581546,-73.18801 z m -98.579955,73.075283 0.31269,0.42706 0.21372,-0.15775 99.581605,-73.187993 0.21214,-0.1566 -0.31273,-0.427034 -0.21372,0.157745 -99.581538,73.188012 z m 102.060355,-73.075283 -0.31269,-0.427064 -0.21372,0.157749 -99.58161,73.187998 -0.212138,0.1566 0.312731,0.42703 0.213716,-0.15774 99.581541,-73.18801 z m -98.57996,73.075283 0.312691,0.42706 0.213719,-0.15775 99.58161,-73.187993 0.21214,-0.1566 -0.31274,-0.427034 -0.21371,0.157745 -99.581543,73.188012 z m 102.06035,-73.075283 -0.31269,-0.427064 -0.21372,0.157749 -99.581604,73.187998 -0.212138,0.1566 0.312731,0.42703 0.213715,-0.15774 99.581546,-73.18801 z m -98.579955,73.075283 0.312691,0.42706 0.21372,-0.15775 99.581604,-73.187993 0.21214,-0.1566 -0.31273,-0.427034 -0.21372,0.157745 -99.581538,73.188012 z m 102.060355,-73.075283 -0.31269,-0.427064 -0.21372,0.157749 -99.581609,73.187998 -0.212138,0.1566 0.312731,0.42703 0.213716,-0.15774 99.58154,-73.18801 z m -98.579959,73.075283 0.31269,0.42706 0.21372,-0.15775 99.581609,-73.187993 0.21214,-0.1566 -0.31273,-0.427034 -0.21372,0.157745 -99.581542,73.188012 z m 102.060349,-73.075283 -0.31269,-0.427064 -0.21372,0.157749 -99.581604,73.187998 -0.212138,0.1566 0.312731,0.42703 0.213716,-0.15774 99.581545,-73.18801 z m -98.579954,73.075283 0.312691,0.42706 0.213719,-0.15775 99.581604,-73.187993 0.21214,-0.1566 -0.31273,-0.427034 -0.21371,0.157745 -99.581547,73.188012 z m 102.060354,-73.075283 -0.31269,-0.427064 -0.21372,0.157749 -99.581608,73.187998 -0.212138,0.1566 0.312731,0.42703 0.213715,-0.15774 99.58154,-73.18801 z m -98.579959,73.075283 0.312691,0.42706 0.21372,-0.15775 99.581608,-73.187993 0.21214,-0.1566 -0.31273,-0.427034 -0.21372,0.157745 -99.581542,73.188012 z M 190.9992,33.897907 l -0.31269,-0.427064 -0.21372,0.157749 -99.581603,73.187998 -0.212138,0.1566 0.312731,0.42703 0.213716,-0.15774 99.581544,-73.18801 z m -98.579953,73.075283 0.31269,0.42706 0.21372,-0.15775 99.581603,-73.187993 0.21214,-0.1566 -0.31273,-0.427034 -0.21371,0.157745 -99.581546,73.188012 z M 194.4796,33.897907 l -0.31269,-0.427064 -0.21372,0.157749 -99.581608,73.187998 -0.212138,0.1566 0.312731,0.42703 0.213716,-0.15774 99.581539,-73.18801 z m -98.579958,73.075283 0.312691,0.42706 0.213719,-0.15775 99.581608,-73.187993 0.21214,-0.1566 -0.31273,-0.427034 -0.21372,0.157745 -99.581541,73.188012 z M 197.96,33.897907 l -0.3127,-0.427064 -0.21371,0.157749 -99.581612,73.187998 -0.212138,0.1566 0.312731,0.42703 0.213715,-0.15774 99.581544,-73.18801 z m -98.579963,73.075283 0.312691,0.42706 0.21372,-0.15775 99.581602,-73.187993 0.21214,-0.1566 -0.31273,-0.427034 -0.21371,0.157745 -99.581546,73.188012 z m 102.060353,-73.075283 -0.31269,-0.427064 -0.21372,0.157749 -99.58161,73.187998 -0.21213,0.1566 0.31273,0.42703 0.21371,-0.15774 99.58154,-73.18801 z m -98.57996,73.075283 0.31269,0.42706 0.21372,-0.15775 99.58161,-73.187993 0.21214,-0.1566 -0.31273,-0.427034 -0.21372,0.157745 -99.58154,73.188012 z m 102.06036,-73.075283 -0.31269,-0.427064 -0.21372,0.157749 -99.58161,73.187998 -0.21214,0.1566 0.31273,0.42703 0.21372,-0.15774 99.58154,-73.18801 z m -98.57996,73.075283 0.31269,0.42706 0.21372,-0.15775 99.58161,-73.187993 0.21213,-0.1566 -0.31273,-0.427034 -0.21371,0.157745 -99.58154,73.188012 z m 102.06035,-73.075283 -0.31269,-0.427064 -0.21372,0.157749 -99.58161,73.187998 -0.21213,0.1566 0.31273,0.42703 0.21371,-0.15774 99.58154,-73.18801 z m -98.57996,73.075283 0.31269,0.42706 0.21372,-0.15775 99.58161,-73.187993 0.21214,-0.1566 -0.31273,-0.427034 -0.21372,0.157745 -99.58154,73.188012 z m 102.06036,-73.075283 -0.31269,-0.427064 -0.21372,0.157749 -99.58161,73.187998 -0.21214,0.1566 0.31273,0.42703 0.21372,-0.15774 99.58154,-73.18801 z m -98.57996,73.075283 0.31269,0.42706 0.21372,-0.15775 99.58161,-73.187993 0.21213,-0.1566 -0.31273,-0.427034 -0.21371,0.157745 -99.58154,73.188012 z m 102.06035,-73.075283 -0.31269,-0.427064 -0.21372,0.157749 -99.58161,73.187998 -0.21213,0.1566 0.31273,0.42703 0.21371,-0.15774 99.58154,-73.18801 z m -98.57996,73.075283 0.31269,0.42706 0.21372,-0.15775 99.58161,-73.187993 0.21214,-0.1566 -0.31273,-0.427034 -0.21372,0.157745 -99.58154,73.188012 z m 102.06036,-73.075283 -0.31269,-0.427064 -0.21372,0.157749 -99.58161,73.187998 -0.21214,0.1566 0.31273,0.42703 0.21372,-0.15774 99.58154,-73.18801 z m -98.57996,73.075283 0.31269,0.42706 0.21372,-0.15775 99.58161,-73.187993 0.21213,-0.1566 -0.31273,-0.427034 -0.21371,0.157745 -99.58154,73.188012 z m 102.06035,-73.075283 -0.31269,-0.427064 -0.21372,0.157749 -99.5816,73.187998 -0.21214,0.1566 0.31273,0.42703 0.21371,-0.15774 99.58155,-73.18801 z m -98.57996,73.075283 0.3127,0.42706 0.21371,-0.15775 99.58161,-73.187993 0.21214,-0.1566 -0.31273,-0.427034 -0.21372,0.157745 -99.58154,73.188012 z m 102.06036,-73.075283 -0.31269,-0.427064 -0.21372,0.157749 -99.58161,73.187998 -0.21214,0.1566 0.31273,0.42703 0.21372,-0.15774 99.58154,-73.18801 z m -98.57996,73.075283 0.31269,0.42706 0.21372,-0.15775 99.58161,-73.187993 0.21214,-0.1566 -0.31274,-0.427034 -0.21371,0.157745 -99.58154,73.188012 z m 102.06035,-73.075283 -0.31269,-0.427064 -0.21372,0.157749 -99.5816,73.187998 -0.21214,0.1566 0.31273,0.42703 0.21371,-0.15774 99.58155,-73.18801 z m -98.57995,73.075283 0.31269,0.42706 0.21372,-0.15775 99.5816,-73.187993 0.21214,-0.1566 -0.31273,-0.427034 -0.21372,0.157745 -99.58154,73.188012 z m 102.06035,-73.075283 -0.31269,-0.427064 -0.21372,0.157749 -99.58161,73.187998 -0.21214,0.1566 0.31273,0.42703 0.21372,-0.15774 99.58154,-73.18801 z m -98.57996,73.075283 0.31269,0.42706 0.21372,-0.15775 99.58161,-73.187993 0.21214,-0.1566 -0.31273,-0.427034 -0.21372,0.157745 -99.58154,73.188012 z m 102.06035,-73.075283 -0.31269,-0.427064 -0.21372,0.157749 -99.5816,73.187998 -0.21214,0.1566 0.31273,0.42703 0.21371,-0.15774 99.58155,-73.18801 z m -98.57995,73.075283 0.31269,0.42706 0.21372,-0.15775 99.5816,-73.187993 0.21214,-0.1566 -0.31273,-0.427034 -0.21371,0.157745 -99.58155,73.188012 z m 102.06035,-73.075283 -0.31269,-0.427064 -0.21372,0.157749 -99.58161,73.187998 -0.21214,0.1566 0.31273,0.42703 0.21372,-0.15774 99.58154,-73.18801 z m -98.57996,73.075283 0.31269,0.42706 0.21372,-0.15775 99.58161,-73.187993 0.21214,-0.1566 -0.31273,-0.427034 -0.21372,0.157745 -99.58154,73.188012 z m 102.06035,-73.075283 -0.31269,-0.427064 -0.21372,0.157749 -99.5816,73.187998 -0.21214,0.1566 0.31273,0.42703 0.21372,-0.15774 99.58154,-73.18801 z m -98.57995,73.075283 0.31269,0.42706 0.21372,-0.15775 99.5816,-73.187993 0.21214,-0.1566 -0.31273,-0.427034 -0.21371,0.157745 -99.58155,73.188012 z m 102.06035,-73.075283 -0.31269,-0.427064 -0.21372,0.157749 -99.58161,73.187998 -0.21214,0.1566 0.31274,0.42703 0.21371,-0.15774 99.58154,-73.18801 z m -98.57996,73.075283 0.31269,0.42706 0.21372,-0.15775 99.58161,-73.187993 0.21214,-0.1566 -0.31273,-0.427034 -0.21372,0.157745 -99.58154,73.188012 z m 102.06036,-73.075283 -0.3127,-0.427064 -0.21371,0.157749 -99.58161,73.187998 -0.21214,0.1566 0.31273,0.42703 0.21372,-0.15774 99.58154,-73.18801 z m -98.57996,73.075283 0.31269,0.42706 0.21372,-0.15775 99.5816,-73.187993 0.21214,-0.1566 -0.31273,-0.427034 -0.21371,0.157745 -99.58155,73.188012 z m 102.06035,-73.075283 -0.31269,-0.427064 -0.21372,0.157749 -99.58161,73.187998 -0.21213,0.1566 0.31273,0.42703 0.21371,-0.15774 99.58154,-73.18801 z m -98.57996,73.075283 0.31269,0.42706 0.21372,-0.15775 99.58161,-73.187993 0.21214,-0.1566 -0.31273,-0.427034 -0.21372,0.157745 -99.58154,73.188012 z m 102.06036,-73.075283 -0.31269,-0.427064 -0.21372,0.157749 -99.58161,73.187998 -0.21214,0.1566 0.31273,0.42703 0.21372,-0.15774 99.58154,-73.18801 z m -98.57996,73.075283 0.31269,0.42706 0.21372,-0.15775 99.58161,-73.187993 0.21213,-0.1566 -0.31273,-0.427034 -0.21371,0.157745 -99.58154,73.188012 z m 102.06035,-73.075283 -0.31269,-0.427064 -0.21372,0.157749 -99.58161,73.187998 -0.21213,0.1566 0.31273,0.42703 0.21371,-0.15774 99.58154,-73.18801 z m -98.57996,73.075283 0.31269,0.42706 0.21372,-0.15775 99.58161,-73.187993 0.21214,-0.1566 -0.31273,-0.427034 -0.21372,0.157745 -99.58154,73.188012 z"
         id="path1037" />
      <path
         style="color:#000000;fill:#ffffff;fill-rule:evenodd;stroke-width:0.529167;stroke-linecap:square;-inkscape-stroke:none;paint-order:markers stroke fill"
         d="M -37.726358,107.02968 61.85548,33.841368 m 1.740075,4.7e-5 -99.581838,73.188315 m 1.74032,-5e-5 99.581838,-73.188312 m 1.740075,4.7e-5 -99.581838,73.188315 m 1.74032,-5e-5 99.581839,-73.188312 m 1.740075,4.7e-5 -99.581839,73.188315 m 1.740321,-5e-5 99.581838,-73.188312 m 1.740075,4.7e-5 -99.581838,73.188315 m 1.74032,-5e-5 99.581838,-73.188312 m 1.740075,4.7e-5 -99.581838,73.188315 m 1.74032,-5e-5 99.581839,-73.188312 m 1.740075,4.7e-5 -99.581839,73.188315 m 1.740321,-5e-5 99.581838,-73.188312 m 1.740075,4.7e-5 -99.581838,73.188315 m 1.74032,-5e-5 99.581838,-73.188312 m 1.740075,4.7e-5 -99.581838,73.188315 m 1.7403203,-5e-5 99.5818387,-73.188312 m 1.740075,4.7e-5 -99.5818385,73.188315 m 1.7403201,-5e-5 99.5818384,-73.188312 m 1.740075,4.7e-5 -99.5818382,73.188315 m 1.7403202,-5e-5 99.581838,-73.188312 m 1.740075,4.7e-5 -99.5818379,73.188315 m 1.7403202,-5e-5 99.5818397,-73.188312 m 1.74007,4.7e-5 -99.5818345,73.188315 m 1.7403201,-5e-5 99.5818344,-73.188312 m 1.74008,4.7e-5 -99.5818392,73.188315 m 1.7403202,-5e-5 99.581839,-73.188312 m 1.74007,4.7e-5 -99.5818339,73.188315 m 1.7403199,-5e-5 99.581834,-73.188312 m 1.74008,4.7e-5 -99.581839,73.188315 m 1.740321,-5e-5 99.581838,-73.188312 m 1.74008,4.7e-5 -99.581843,73.188315 m 1.74032,-5e-5 99.581843,-73.188312 m 1.74007,4.7e-5 -99.581838,73.188315 m 1.74032,-5e-5 99.581838,-73.188312 m 1.74008,4.7e-5 -99.581843,73.188315 m 1.740321,-5e-5 99.581842,-73.188312 m 1.74007,4.7e-5 -99.581837,73.188315 m 1.74032,-5e-5 99.581837,-73.188312 m 1.74008,4.7e-5 -99.581842,73.188315 m 1.74032,-5e-5 99.581842,-73.188312 m 1.74007,4.7e-5 -99.581837,73.188315 m 1.740321,-5e-5 99.581836,-73.188312 m 1.74008,4.7e-5 -99.581841,73.188315 m 1.74032,-5e-5 99.581841,-73.188312 m 1.74007,4.7e-5 -99.581836,73.188315 m 1.74032,-5e-5 99.581836,-73.188312 m 1.74008,4.7e-5 -99.581841,73.188315 m 1.740321,-5e-5 99.58184,-73.188312 m 1.74007,4.7e-5 -99.581835,73.188315 m 1.74032,-5e-5 99.581835,-73.188312 m 1.74008,4.7e-5 -99.58184,73.188315 m 1.74032,-5e-5 99.58184,-73.188312 m 1.74007,4.7e-5 -99.581835,73.188315 m 1.740321,-5e-5 99.581834,-73.188312 m 1.74008,4.7e-5 -99.581839,73.188315 m 1.74032,-5e-5 99.581839,-73.188312 m 1.74007,4.7e-5 -99.581834,73.188315 m 1.74032,-5e-5 99.581834,-73.188312 m 1.74008,4.7e-5 -99.581839,73.188315 m 1.740321,-5e-5 99.581838,-73.188312 m 1.74008,4.7e-5 -99.581843,73.188315 m 1.74032,-5e-5 99.581843,-73.188312 m 1.74007,4.7e-5 -99.581838,73.188315 m 1.74032,-5e-5 99.581838,-73.188312 m 1.74008,4.7e-5 -99.581843,73.188315 m 1.740321,-5e-5 99.581842,-73.188312 m 1.74007,4.7e-5 -99.581837,73.188315 m 1.74032,-5e-5 99.581837,-73.188312 m 1.74008,4.7e-5 -99.581842,73.188315 m 1.74032,-5e-5 99.581842,-73.188312 m 1.74007,4.7e-5 -99.581837,73.188315 m 1.740321,-5e-5 99.581836,-73.188312 m 1.74008,4.7e-5 -99.581841,73.188315 m 1.74032,-5e-5 99.581841,-73.188312 m 1.74007,4.7e-5 -99.581836,73.188315 m 1.74032,-5e-5 99.581836,-73.188312 m 1.74008,4.7e-5 -99.581841,73.188315 m 1.740321,-5e-5 99.58184,-73.188312 m 1.74007,4.7e-5 -99.581835,73.188315 m 1.740315,-5e-5 99.58184,-73.188312 m 1.74008,4.7e-5 -99.58184,73.188315 m 1.74032,-5e-5 99.58184,-73.188312 m 1.74007,4.7e-5 -99.58183,73.188315 m 1.74032,-5e-5 99.58183,-73.188312 m 1.74008,4.7e-5 -99.58184,73.188315 m 1.74032,-5e-5 99.58184,-73.188312 m 1.74007,4.7e-5 -99.58183,73.188315 m 1.74032,-5e-5 99.58183,-73.188312 m 1.74008,4.7e-5 -99.58184,73.188315 m 1.74032,-5e-5 99.58184,-73.188312 m 1.74008,4.7e-5 -99.58184,73.188315 m 1.74032,-5e-5 99.58184,-73.188312 m 1.74007,4.7e-5 -99.58184,73.188315 m 1.74032,-5e-5 99.58184,-73.188312 m 1.74008,4.7e-5 -99.58184,73.188315 m 1.74032,-5e-5 99.58184,-73.188312 m 1.74007,4.7e-5 -99.58184,73.188315 m 1.74032,-5e-5 99.58184,-73.188312 m 1.74008,4.7e-5 -99.58184,73.188315 m 1.74032,-5e-5 99.58184,-73.188312 m 1.74007,4.7e-5 -99.58184,73.188315 m 1.74032,-5e-5 99.58184,-73.188312 m 1.74008,4.7e-5 -99.58184,73.188315 m 1.74032,-5e-5 99.58184,-73.188312 m 1.74007,4.7e-5 -99.58184,73.188315 m 1.74032,-5e-5 99.58184,-73.188312 m 1.74008,4.7e-5 -99.58184,73.188315 m 1.74032,-5e-5 99.58184,-73.188312 m 1.74007,4.7e-5 -99.58184,73.188315 m 1.74032,-5e-5 99.58184,-73.188312 m 1.74008,4.7e-5 -99.58184,73.188315 m 1.74032,-5e-5 99.58184,-73.188312 m 1.74007,4.7e-5 -99.58183,73.188315 m 1.74032,-5e-5 99.58183,-73.188312 m 1.74008,4.7e-5 -99.58184,73.188315"
         id="path1039" />
    </g>
  </g>
</svg>
