<svg viewBox="0 0 727 88" fill="#916D52" xmlns="http://www.w3.org/2000/svg">
<path  d="M422.932 0L363.426 56.9805L306.762 0.154299L247.418 56.9805L190.748 0.154299L131.404 56.9785L74.7422 0.154299L7.77344 64.2813L0 71.7207L14.8906 87.2754L22.6621 79.834L74.3945 30.3008L123.604 79.6562L130.896 87.2754L131.051 87.127L131.207 87.2832L138.678 79.834L190.402 30.3008L239.617 79.6563L246.91 87.2754L247.064 87.127L247.221 87.2832L254.771 79.75L306.416 30.3008L355.623 79.6563L363.227 87.2832L370.852 79.6797L422.584 30.1465L471.793 79.502L479.086 87.1211L479.24 86.9727L479.396 87.1289L486.867 79.6797L538.592 30.1465L587.806 79.502L595.099 87.1211L595.254 86.9727L595.41 87.129L602.96 79.5957L654.605 30.1465L703.812 79.502L711.416 87.129L726.666 71.9219L719.064 64.295L654.951 5.04621e-05L595.607 56.8262L538.937 5.04621e-05L479.593 56.8243L422.932 0Z"/>
</svg>
